# MagicaVoxel @ Ephtracy

# group
o 

# material
mtllib spirit sword.vox.mtl
usemtl palette

# normals
vn 0 0 1
vn 0 0 -1
vn 1 0 0
vn -1 0 0
vn 0 -1 0
vn 0 1 0

# texcoords
vt 0.267578 0.5
vt 0.955078 0.5
vt 0.966797 0.5
vt 0.970703 0.5
vt 0.974609 0.5

# verts
v -1.4 0.7 0.3
v -1.6 0.7 0.3
v -1.4 0.8 0.3
v -1.6 0.8 0.3
v -1.3 1.1 0.3
v -1.7 1.1 0.3
v -1.4 1.2 0.3
v -1.6 1.2 0.3
v -1.4 1.3 0.3
v -1.6 1.3 0.3
v -1.3 1.4 0.3
v -1.4 1.4 0.3
v -1.6 1.4 0.3
v -1.7 1.4 0.3
v -1.4 2.5 0.3
v -1.6 2.5 0.3
v -1.4 0.6 0.2
v -1.6 0.6 0.2
v -1.3 0.7 0.2
v -1.4 0.7 0.2
v -1.6 0.7 0.2
v -1.7 0.7 0.2
v -1.3 0.8 0.2
v -1.4 0.8 0.2
v -1.6 0.8 0.2
v -1.7 0.8 0.2
v -1.4 0.9 0.2
v -1.6 0.9 0.2
v -1.4 1 0.2
v -1.6 1 0.2
v -1.4 1.1 0.2
v -1.6 1.1 0.2
v -1.2 1.2 0.2
v -1.3 1.2 0.2
v -1.7 1.2 0.2
v -1.8 1.2 0.2
v -1.2 1.4 0.2
v -1.3 1.4 0.2
v -1.4 1.4 0.2
v -1.6 1.4 0.2
v -1.7 1.4 0.2
v -1.8 1.4 0.2
v -1.3 2.5 0.2
v -1.4 2.5 0.2
v -1.6 2.5 0.2
v -1.7 2.5 0.2
v -1.4 2.7 0.2
v -1.6 2.7 0.2
v -1.4 0.6 0.1
v -1.6 0.6 0.1
v -1.3 0.7 0.1
v -1.4 0.7 0.1
v -1.6 0.7 0.1
v -1.7 0.7 0.1
v -1.3 0.8 0.1
v -1.4 0.8 0.1
v -1.6 0.8 0.1
v -1.7 0.8 0.1
v -1.4 0.9 0.1
v -1.6 0.9 0.1
v -1.4 1 0.1
v -1.6 1 0.1
v -1.4 1.1 0.1
v -1.6 1.1 0.1
v -1.2 1.2 0.1
v -1.3 1.2 0.1
v -1.7 1.2 0.1
v -1.8 1.2 0.1
v -1.2 1.4 0.1
v -1.3 1.4 0.1
v -1.4 1.4 0.1
v -1.6 1.4 0.1
v -1.7 1.4 0.1
v -1.8 1.4 0.1
v -1.3 2.5 0.1
v -1.4 2.5 0.1
v -1.6 2.5 0.1
v -1.7 2.5 0.1
v -1.4 2.7 0.1
v -1.6 2.7 0.1
v -1.4 0.7 0
v -1.6 0.7 0
v -1.4 0.8 0
v -1.6 0.8 0
v -1.3 1.1 0
v -1.7 1.1 0
v -1.3 1.2 0
v -1.7 1.2 0
v -1.3 1.4 0
v -1.4 1.4 0
v -1.6 1.4 0
v -1.7 1.4 0
v -1.4 2.5 0
v -1.6 2.5 0
v -1.2 1.2 0.2
v -1.2 1.4 0.2
v -1.2 1.2 0.1
v -1.2 1.4 0.1
v -1.3 1.1 0.3
v -1.3 1.4 0.3
v -1.3 0.7 0.2
v -1.3 0.8 0.2
v -1.3 1.2 0.2
v -1.3 1.4 0.2
v -1.3 2.5 0.2
v -1.3 0.7 0.1
v -1.3 0.8 0.1
v -1.3 1.2 0.1
v -1.3 1.4 0.1
v -1.3 2.5 0.1
v -1.3 1.1 0
v -1.3 1.2 0
v -1.3 1.4 0
v -1.4 0.7 0.3
v -1.4 0.8 0.3
v -1.4 1.4 0.3
v -1.4 2.5 0.3
v -1.4 0.6 0.2
v -1.4 0.7 0.2
v -1.4 0.8 0.2
v -1.4 0.9 0.2
v -1.4 1 0.2
v -1.4 1.1 0.2
v -1.4 1.4 0.2
v -1.4 2.5 0.2
v -1.4 2.7 0.2
v -1.4 0.6 0.1
v -1.4 0.7 0.1
v -1.4 0.8 0.1
v -1.4 0.9 0.1
v -1.4 1 0.1
v -1.4 1.1 0.1
v -1.4 1.4 0.1
v -1.4 2.5 0.1
v -1.4 2.7 0.1
v -1.4 0.7 0
v -1.4 0.8 0
v -1.4 1.4 0
v -1.4 2.5 0
v -1.6 0.7 0.3
v -1.6 0.8 0.3
v -1.6 1.4 0.3
v -1.6 2.5 0.3
v -1.6 0.6 0.2
v -1.6 0.7 0.2
v -1.6 0.8 0.2
v -1.6 0.9 0.2
v -1.6 1 0.2
v -1.6 1.1 0.2
v -1.6 1.4 0.2
v -1.6 2.5 0.2
v -1.6 2.7 0.2
v -1.6 0.6 0.1
v -1.6 0.7 0.1
v -1.6 0.8 0.1
v -1.6 0.9 0.1
v -1.6 1 0.1
v -1.6 1.1 0.1
v -1.6 1.4 0.1
v -1.6 2.5 0.1
v -1.6 2.7 0.1
v -1.6 0.7 0
v -1.6 0.8 0
v -1.6 1.4 0
v -1.6 2.5 0
v -1.7 1.1 0.3
v -1.7 1.4 0.3
v -1.7 0.7 0.2
v -1.7 0.8 0.2
v -1.7 1.2 0.2
v -1.7 1.4 0.2
v -1.7 2.5 0.2
v -1.7 0.7 0.1
v -1.7 0.8 0.1
v -1.7 1.2 0.1
v -1.7 1.4 0.1
v -1.7 2.5 0.1
v -1.7 1.1 0
v -1.7 1.2 0
v -1.7 1.4 0
v -1.8 1.2 0.2
v -1.8 1.4 0.2
v -1.8 1.2 0.1
v -1.8 1.4 0.1
v -1.4 0.6 0.2
v -1.4 0.6 0.1
v -1.6 0.6 0.2
v -1.6 0.6 0.1
v -1.3 0.7 0.2
v -1.3 0.7 0.1
v -1.4 0.7 0.3
v -1.4 0.7 0.2
v -1.4 0.7 0.1
v -1.4 0.7 0
v -1.6 0.7 0.3
v -1.6 0.7 0.2
v -1.6 0.7 0.1
v -1.6 0.7 0
v -1.7 0.7 0.2
v -1.7 0.7 0.1
v -1.3 1.1 0.3
v -1.3 1.1 0
v -1.4 1.1 0.2
v -1.4 1.1 0.1
v -1.6 1.1 0.2
v -1.6 1.1 0.1
v -1.7 1.1 0.3
v -1.7 1.1 0
v -1.2 1.2 0.2
v -1.2 1.2 0.1
v -1.3 1.2 0.2
v -1.3 1.2 0.1
v -1.7 1.2 0.2
v -1.7 1.2 0.1
v -1.8 1.2 0.2
v -1.8 1.2 0.1
v -1.3 0.8 0.2
v -1.3 0.8 0.1
v -1.4 0.8 0.3
v -1.4 0.8 0.2
v -1.4 0.8 0.1
v -1.4 0.8 0
v -1.6 0.8 0.3
v -1.6 0.8 0.2
v -1.6 0.8 0.1
v -1.6 0.8 0
v -1.7 0.8 0.2
v -1.7 0.8 0.1
v -1.2 1.4 0.2
v -1.2 1.4 0.1
v -1.3 1.4 0.3
v -1.3 1.4 0.2
v -1.3 1.4 0.1
v -1.3 1.4 0
v -1.4 1.4 0.3
v -1.4 1.4 0.2
v -1.4 1.4 0.1
v -1.4 1.4 0
v -1.6 1.4 0.3
v -1.6 1.4 0.2
v -1.6 1.4 0.1
v -1.6 1.4 0
v -1.7 1.4 0.3
v -1.7 1.4 0.2
v -1.7 1.4 0.1
v -1.7 1.4 0
v -1.8 1.4 0.2
v -1.8 1.4 0.1
v -1.3 2.5 0.2
v -1.3 2.5 0.1
v -1.4 2.5 0.3
v -1.4 2.5 0.2
v -1.4 2.5 0.1
v -1.4 2.5 0
v -1.6 2.5 0.3
v -1.6 2.5 0.2
v -1.6 2.5 0.1
v -1.6 2.5 0
v -1.7 2.5 0.2
v -1.7 2.5 0.1
v -1.4 2.7 0.2
v -1.4 2.7 0.1
v -1.6 2.7 0.2
v -1.6 2.7 0.1

# faces
f 3/4/1 2/4/1 1/4/1
f 4/4/1 2/4/1 3/4/1
f 7/4/1 6/4/1 5/4/1
f 8/4/1 6/4/1 7/4/1
f 9/4/1 7/4/1 5/4/1
f 9/1/1 8/1/1 7/1/1
f 10/4/1 6/4/1 8/4/1
f 10/1/1 8/1/1 9/1/1
f 11/4/1 9/4/1 5/4/1
f 11/4/1 10/4/1 9/4/1
f 12/4/1 10/4/1 11/4/1
f 13/4/1 6/4/1 10/4/1
f 13/4/1 10/4/1 12/4/1
f 14/4/1 6/4/1 13/4/1
f 15/3/1 13/3/1 12/3/1
f 16/3/1 13/3/1 15/3/1
f 20/4/1 18/4/1 17/4/1
f 21/4/1 18/4/1 20/4/1
f 23/4/1 20/4/1 19/4/1
f 24/4/1 20/4/1 23/4/1
f 25/4/1 22/4/1 21/4/1
f 26/4/1 22/4/1 25/4/1
f 27/5/1 25/5/1 24/5/1
f 28/5/1 25/5/1 27/5/1
f 29/4/1 28/4/1 27/4/1
f 30/4/1 28/4/1 29/4/1
f 31/5/1 30/5/1 29/5/1
f 32/5/1 30/5/1 31/5/1
f 37/4/1 34/4/1 33/4/1
f 38/4/1 34/4/1 37/4/1
f 41/4/1 36/4/1 35/4/1
f 42/4/1 36/4/1 41/4/1
f 43/3/1 39/3/1 38/3/1
f 44/3/1 39/3/1 43/3/1
f 45/3/1 41/3/1 40/3/1
f 46/3/1 41/3/1 45/3/1
f 47/3/1 45/3/1 44/3/1
f 48/3/1 45/3/1 47/3/1
f 49/4/2 50/4/2 52/4/2
f 52/4/2 50/4/2 53/4/2
f 51/4/2 52/4/2 55/4/2
f 55/4/2 52/4/2 56/4/2
f 53/4/2 54/4/2 57/4/2
f 57/4/2 54/4/2 58/4/2
f 56/5/2 57/5/2 59/5/2
f 59/5/2 57/5/2 60/5/2
f 59/4/2 60/4/2 61/4/2
f 61/4/2 60/4/2 62/4/2
f 61/5/2 62/5/2 63/5/2
f 63/5/2 62/5/2 64/5/2
f 65/4/2 66/4/2 69/4/2
f 69/4/2 66/4/2 70/4/2
f 67/4/2 68/4/2 73/4/2
f 73/4/2 68/4/2 74/4/2
f 70/3/2 71/3/2 75/3/2
f 75/3/2 71/3/2 76/3/2
f 72/3/2 73/3/2 77/3/2
f 77/3/2 73/3/2 78/3/2
f 76/3/2 77/3/2 79/3/2
f 79/3/2 77/3/2 80/3/2
f 81/4/2 82/4/2 83/4/2
f 83/4/2 82/4/2 84/4/2
f 85/4/2 86/4/2 87/4/2
f 87/4/2 86/4/2 88/4/2
f 87/3/2 88/3/2 89/3/2
f 89/3/2 88/3/2 90/3/2
f 90/3/2 88/3/2 91/3/2
f 91/3/2 88/3/2 92/3/2
f 90/3/2 91/3/2 93/3/2
f 93/3/2 91/3/2 94/3/2
f 97/4/3 96/4/3 95/4/3
f 98/4/3 96/4/3 97/4/3
f 103/4/3 100/4/3 99/4/3
f 104/4/3 100/4/3 103/4/3
f 106/4/3 102/4/3 101/4/3
f 107/4/3 102/4/3 106/4/3
f 108/4/3 103/4/3 99/4/3
f 109/3/3 105/3/3 104/3/3
f 110/3/3 105/3/3 109/3/3
f 111/4/3 108/4/3 99/4/3
f 112/3/3 109/3/3 108/3/3
f 112/4/3 108/4/3 111/4/3
f 113/3/3 109/3/3 112/3/3
f 119/4/3 115/4/3 114/4/3
f 120/4/3 115/4/3 119/4/3
f 124/3/3 117/3/3 116/3/3
f 125/3/3 117/3/3 124/3/3
f 127/4/3 119/4/3 118/4/3
f 128/4/3 119/4/3 127/4/3
f 129/5/3 121/5/3 120/5/3
f 130/4/3 122/4/3 121/4/3
f 130/5/3 121/5/3 129/5/3
f 131/5/3 123/5/3 122/5/3
f 131/4/3 122/4/3 130/4/3
f 132/5/3 123/5/3 131/5/3
f 134/3/3 126/3/3 125/3/3
f 135/3/3 126/3/3 134/3/3
f 136/4/3 129/4/3 128/4/3
f 137/4/3 129/4/3 136/4/3
f 138/3/3 134/3/3 133/3/3
f 139/3/3 134/3/3 138/3/3
f 140/4/4 141/4/4 145/4/4
f 145/4/4 141/4/4 146/4/4
f 142/3/4 143/3/4 150/3/4
f 150/3/4 143/3/4 151/3/4
f 144/4/4 145/4/4 153/4/4
f 153/4/4 145/4/4 154/4/4
f 146/5/4 147/5/4 155/5/4
f 147/4/4 148/4/4 156/4/4
f 155/5/4 147/5/4 156/5/4
f 148/5/4 149/5/4 157/5/4
f 156/4/4 148/4/4 157/4/4
f 157/5/4 149/5/4 158/5/4
f 151/3/4 152/3/4 160/3/4
f 160/3/4 152/3/4 161/3/4
f 154/4/4 155/4/4 162/4/4
f 162/4/4 155/4/4 163/4/4
f 159/3/4 160/3/4 164/3/4
f 164/3/4 160/3/4 165/3/4
f 166/4/4 167/4/4 170/4/4
f 170/4/4 167/4/4 171/4/4
f 168/4/4 169/4/4 173/4/4
f 173/4/4 169/4/4 174/4/4
f 166/4/4 170/4/4 175/4/4
f 171/3/4 172/3/4 176/3/4
f 176/3/4 172/3/4 177/3/4
f 166/4/4 175/4/4 178/4/4
f 175/3/4 176/3/4 179/3/4
f 178/4/4 175/4/4 179/4/4
f 179/3/4 176/3/4 180/3/4
f 181/4/4 182/4/4 183/4/4
f 183/4/4 182/4/4 184/4/4
f 187/4/5 186/4/5 185/4/5
f 188/4/5 186/4/5 187/4/5
f 192/4/5 190/4/5 189/4/5
f 193/4/5 190/4/5 192/4/5
f 195/4/5 192/4/5 191/4/5
f 196/4/5 192/4/5 195/4/5
f 197/4/5 194/4/5 193/4/5
f 198/4/5 194/4/5 197/4/5
f 199/4/5 197/4/5 196/4/5
f 200/4/5 197/4/5 199/4/5
f 203/4/5 202/4/5 201/4/5
f 204/4/5 202/4/5 203/4/5
f 205/4/5 203/4/5 201/4/5
f 206/4/5 202/4/5 204/4/5
f 207/4/5 205/4/5 201/4/5
f 207/4/5 206/4/5 205/4/5
f 208/4/5 202/4/5 206/4/5
f 208/4/5 206/4/5 207/4/5
f 211/4/5 210/4/5 209/4/5
f 212/4/5 210/4/5 211/4/5
f 215/4/5 214/4/5 213/4/5
f 216/4/5 214/4/5 215/4/5
f 217/4/6 218/4/6 220/4/6
f 220/4/6 218/4/6 221/4/6
f 219/4/6 220/4/6 223/4/6
f 223/4/6 220/4/6 224/4/6
f 221/4/6 222/4/6 225/4/6
f 225/4/6 222/4/6 226/4/6
f 224/4/6 225/4/6 227/4/6
f 227/4/6 225/4/6 228/4/6
f 229/4/6 230/4/6 232/4/6
f 232/4/6 230/4/6 233/4/6
f 231/4/6 232/4/6 235/4/6
f 235/4/6 232/4/6 236/4/6
f 233/3/6 234/3/6 237/3/6
f 237/3/6 234/3/6 238/3/6
f 239/4/6 240/4/6 243/4/6
f 243/4/6 240/4/6 244/4/6
f 241/3/6 242/3/6 245/3/6
f 245/3/6 242/3/6 246/3/6
f 244/4/6 245/4/6 247/4/6
f 247/4/6 245/4/6 248/4/6
f 249/3/6 250/3/6 252/3/6
f 252/3/6 250/3/6 253/3/6
f 251/3/6 252/3/6 255/3/6
f 255/3/6 252/3/6 256/3/6
f 253/3/6 254/3/6 257/3/6
f 257/3/6 254/3/6 258/3/6
f 256/3/6 257/3/6 259/3/6
f 259/3/6 257/3/6 260/3/6
f 261/3/6 262/3/6 263/3/6
f 263/3/6 262/3/6 264/3/6
