# MagicaVoxel @ Ephtracy

# group
o 

# material
mtllib Tile_minable.vox.mtl
usemtl palette

# normals
vn -1 0 0
vn 1 0 0
vn 0 0 1
vn 0 0 -1
vn 0 -1 0
vn 0 1 0

# texcoords
vt 0.134766 0.5
vt 0.259766 0.5
vt 0.423828 0.5
vt 0.435547 0.5
vt 0.689453 0.5
vt 0.701172 0.5

# verts
v -2 0 2
v -2 0 -2
v -2 0.1 1.9
v -2 0.1 -1.9
v -2 1.2 1.9
v -2 1.2 -1.9
v -2 1.3 2
v -2 1.3 -2
v -1.8 0 1.7
v -1.8 0 1.6
v -1.8 0.1 1.7
v -1.8 0.1 1.6
v -1.7 0 -0.9
v -1.7 0 -1
v -1.7 0.1 -0.9
v -1.7 0.1 -1
v -1.1 0 -0.3
v -1.1 0 -0.4
v -1.1 0 -1.3
v -1.1 0 -1.4
v -1.1 0.1 -0.3
v -1.1 0.1 -0.4
v -1.1 0.1 -1.3
v -1.1 0.1 -1.4
v -0.9 0 1
v -0.9 0 0.9
v -0.9 0.1 1
v -0.9 0.1 0.9
v -0.2 0 1.7
v -0.2 0 1.6
v -0.2 0.1 1.7
v -0.2 0.1 1.6
v 2.38419e-07 0 -0.7
v 2.38419e-07 0 -0.8
v 2.38419e-07 0.1 -0.7
v 2.38419e-07 0.1 -0.8
v 0.1 0 0.7
v 0.1 0 0.6
v 0.1 0.1 0.7
v 0.1 0.1 0.6
v 0.3 0 -1.4
v 0.3 0 -1.5
v 0.3 0.1 -1.4
v 0.3 0.1 -1.5
v 0.8 0 -2.38419e-07
v 0.8 0 -0.1
v 0.8 0.1 -2.38419e-07
v 0.8 0.1 -0.1
v 1.1 0 1.4
v 1.1 0 1.3
v 1.1 0.1 1.4
v 1.1 0.1 1.3
v 1.5 0 -1.1
v 1.5 0 -1.2
v 1.5 0.1 -1.1
v 1.5 0.1 -1.2
v 1.7 0 0.2
v 1.7 0 0.0999999
v 1.7 0.1 0.2
v 1.7 0.1 0.0999999
v 1.9 0 1.9
v 1.9 0 -1.9
v 1.9 0.1 1.9
v 1.9 0.1 -1.9
v -1.9 0 1.9
v -1.9 0 0.2
v -1.9 0 0.0999999
v -1.9 0 -1.9
v -1.9 0.1 1.9
v -1.9 0.1 0.2
v -1.9 0.1 0.0999999
v -1.9 0.1 -1.9
v -1.8 0 0.2
v -1.8 0 0.0999999
v -1.8 0.1 0.2
v -1.8 0.1 0.0999999
v -1.7 0 1.7
v -1.7 0 1.6
v -1.7 0.1 1.7
v -1.7 0.1 1.6
v -1.6 0 -0.9
v -1.6 0 -1
v -1.6 0.1 -0.9
v -1.6 0.1 -1
v -1 0 -0.3
v -1 0 -0.4
v -1 0 -1.3
v -1 0 -1.4
v -1 0.1 -0.3
v -1 0.1 -0.4
v -1 0.1 -1.3
v -1 0.1 -1.4
v -0.8 0 1
v -0.8 0 0.9
v -0.8 0.1 1
v -0.8 0.1 0.9
v -0.0999999 0 1.7
v -0.0999999 0 1.6
v -0.0999999 0.1 1.7
v -0.0999999 0.1 1.6
v 0.1 0 -0.7
v 0.1 0 -0.8
v 0.1 0.1 -0.7
v 0.1 0.1 -0.8
v 0.2 0 0.7
v 0.2 0 0.6
v 0.2 0.1 0.7
v 0.2 0.1 0.6
v 0.4 0 -1.4
v 0.4 0 -1.5
v 0.4 0.1 -1.4
v 0.4 0.1 -1.5
v 0.9 0 -2.38419e-07
v 0.9 0 -0.1
v 0.9 0.1 -2.38419e-07
v 0.9 0.1 -0.1
v 1.2 0 1.4
v 1.2 0 1.3
v 1.2 0.1 1.4
v 1.2 0.1 1.3
v 1.6 0 -1.1
v 1.6 0 -1.2
v 1.6 0.1 -1.1
v 1.6 0.1 -1.2
v 1.8 0 0.2
v 1.8 0 0.0999999
v 1.8 0.1 0.2
v 1.8 0.1 0.0999999
v 2 0 2
v 2 0 -2
v 2 0.1 1.9
v 2 0.1 -1.9
v 2 1.2 1.9
v 2 1.2 -1.9
v 2 1.3 2
v 2 1.3 -2
v -2 0 2
v -2 1.3 2
v -1.9 0.1 2
v -1.9 1.2 2
v 1.9 0.1 2
v 1.9 1.2 2
v 2 0 2
v 2 1.3 2
v -1.8 0 1.7
v -1.8 0.1 1.7
v -1.7 0 1.7
v -1.7 0.1 1.7
v -0.2 0 1.7
v -0.2 0.1 1.7
v -0.0999999 0 1.7
v -0.0999999 0.1 1.7
v 1.1 0 1.4
v 1.1 0.1 1.4
v 1.2 0 1.4
v 1.2 0.1 1.4
v -0.9 0 1
v -0.9 0.1 1
v -0.8 0 1
v -0.8 0.1 1
v 0.1 0 0.7
v 0.1 0.1 0.7
v 0.2 0 0.7
v 0.2 0.1 0.7
v -1.9 0 0.2
v -1.9 0.1 0.2
v -1.8 0 0.2
v -1.8 0.1 0.2
v 1.7 0 0.2
v 1.7 0.1 0.2
v 1.8 0 0.2
v 1.8 0.1 0.2
v 0.8 0 -2.38419e-07
v 0.8 0.1 -2.38419e-07
v 0.9 0 -2.38419e-07
v 0.9 0.1 -2.38419e-07
v -1.1 0 -0.3
v -1.1 0.1 -0.3
v -1 0 -0.3
v -1 0.1 -0.3
v 2.38419e-07 0 -0.7
v 2.38419e-07 0.1 -0.7
v 0.1 0 -0.7
v 0.1 0.1 -0.7
v -1.7 0 -0.9
v -1.7 0.1 -0.9
v -1.6 0 -0.9
v -1.6 0.1 -0.9
v 1.5 0 -1.1
v 1.5 0.1 -1.1
v 1.6 0 -1.1
v 1.6 0.1 -1.1
v -1.1 0 -1.3
v -1.1 0.1 -1.3
v -1 0 -1.3
v -1 0.1 -1.3
v 0.3 0 -1.4
v 0.3 0.1 -1.4
v 0.4 0 -1.4
v 0.4 0.1 -1.4
v -1.9 0 -1.9
v -1.9 0.1 -1.9
v 1.9 0 -1.9
v 1.9 0.1 -1.9
v -1.9 0 1.9
v -1.9 0.1 1.9
v 1.9 0 1.9
v 1.9 0.1 1.9
v -1.8 0 1.6
v -1.8 0.1 1.6
v -1.7 0 1.6
v -1.7 0.1 1.6
v -0.2 0 1.6
v -0.2 0.1 1.6
v -0.0999999 0 1.6
v -0.0999999 0.1 1.6
v 1.1 0 1.3
v 1.1 0.1 1.3
v 1.2 0 1.3
v 1.2 0.1 1.3
v -0.9 0 0.9
v -0.9 0.1 0.9
v -0.8 0 0.9
v -0.8 0.1 0.9
v 0.1 0 0.6
v 0.1 0.1 0.6
v 0.2 0 0.6
v 0.2 0.1 0.6
v -1.9 0 0.0999999
v -1.9 0.1 0.0999999
v -1.8 0 0.0999999
v -1.8 0.1 0.0999999
v 1.7 0 0.0999999
v 1.7 0.1 0.0999999
v 1.8 0 0.0999999
v 1.8 0.1 0.0999999
v 0.8 0 -0.1
v 0.8 0.1 -0.1
v 0.9 0 -0.1
v 0.9 0.1 -0.1
v -1.1 0 -0.4
v -1.1 0.1 -0.4
v -1 0 -0.4
v -1 0.1 -0.4
v 2.38419e-07 0 -0.8
v 2.38419e-07 0.1 -0.8
v 0.1 0 -0.8
v 0.1 0.1 -0.8
v -1.7 0 -1
v -1.7 0.1 -1
v -1.6 0 -1
v -1.6 0.1 -1
v 1.5 0 -1.2
v 1.5 0.1 -1.2
v 1.6 0 -1.2
v 1.6 0.1 -1.2
v -1.1 0 -1.4
v -1.1 0.1 -1.4
v -1 0 -1.4
v -1 0.1 -1.4
v 0.3 0 -1.5
v 0.3 0.1 -1.5
v 0.4 0 -1.5
v 0.4 0.1 -1.5
v -2 0 -2
v -2 1.3 -2
v -1.9 0.1 -2
v -1.9 1.2 -2
v 1.9 0.1 -2
v 1.9 1.2 -2
v 2 0 -2
v 2 1.3 -2
v -2 0 2
v 2 0 2
v -1.9 0 1.9
v 1.9 0 1.9
v -1.8 0 1.7
v -1.7 0 1.7
v -0.2 0 1.7
v -0.0999999 0 1.7
v -1.8 0 1.6
v -1.7 0 1.6
v -0.2 0 1.6
v -0.0999999 0 1.6
v 1.1 0 1.4
v 1.2 0 1.4
v 1.1 0 1.3
v 1.2 0 1.3
v -0.9 0 1
v -0.8 0 1
v -0.9 0 0.9
v -0.8 0 0.9
v 0.1 0 0.7
v 0.2 0 0.7
v 0.1 0 0.6
v 0.2 0 0.6
v -1.9 0 0.2
v -1.8 0 0.2
v 1.7 0 0.2
v 1.8 0 0.2
v -1.9 0 0.0999999
v -1.8 0 0.0999999
v 1.7 0 0.0999999
v 1.8 0 0.0999999
v 0.8 0 -2.38419e-07
v 0.9 0 -2.38419e-07
v 0.8 0 -0.1
v 0.9 0 -0.1
v -1.1 0 -0.3
v -1 0 -0.3
v -1.1 0 -0.4
v -1 0 -0.4
v 2.38419e-07 0 -0.7
v 0.1 0 -0.7
v 2.38419e-07 0 -0.8
v 0.1 0 -0.8
v -1.7 0 -0.9
v -1.6 0 -0.9
v -1.7 0 -1
v -1.6 0 -1
v 1.5 0 -1.1
v 1.6 0 -1.1
v 1.5 0 -1.2
v 1.6 0 -1.2
v -1.1 0 -1.3
v -1 0 -1.3
v -1.1 0 -1.4
v -1 0 -1.4
v 0.3 0 -1.4
v 0.4 0 -1.4
v 0.3 0 -1.5
v 0.4 0 -1.5
v -1.9 0 -1.9
v 1.9 0 -1.9
v -2 0 -2
v 2 0 -2
v -1.9 0.1 1.9
v 1.9 0.1 1.9
v -1.8 0.1 1.7
v -1.7 0.1 1.7
v -0.2 0.1 1.7
v -0.0999999 0.1 1.7
v -1.8 0.1 1.6
v -1.7 0.1 1.6
v -0.2 0.1 1.6
v -0.0999999 0.1 1.6
v 1.1 0.1 1.4
v 1.2 0.1 1.4
v 1.1 0.1 1.3
v 1.2 0.1 1.3
v -0.9 0.1 1
v -0.8 0.1 1
v -0.9 0.1 0.9
v -0.8 0.1 0.9
v 0.1 0.1 0.7
v 0.2 0.1 0.7
v 0.1 0.1 0.6
v 0.2 0.1 0.6
v -1.9 0.1 0.2
v -1.8 0.1 0.2
v 1.7 0.1 0.2
v 1.8 0.1 0.2
v -1.9 0.1 0.0999999
v -1.8 0.1 0.0999999
v 1.7 0.1 0.0999999
v 1.8 0.1 0.0999999
v 0.8 0.1 -2.38419e-07
v 0.9 0.1 -2.38419e-07
v 0.8 0.1 -0.1
v 0.9 0.1 -0.1
v -1.1 0.1 -0.3
v -1 0.1 -0.3
v -1.1 0.1 -0.4
v -1 0.1 -0.4
v 2.38419e-07 0.1 -0.7
v 0.1 0.1 -0.7
v 2.38419e-07 0.1 -0.8
v 0.1 0.1 -0.8
v -1.7 0.1 -0.9
v -1.6 0.1 -0.9
v -1.7 0.1 -1
v -1.6 0.1 -1
v 1.5 0.1 -1.1
v 1.6 0.1 -1.1
v 1.5 0.1 -1.2
v 1.6 0.1 -1.2
v -1.1 0.1 -1.3
v -1 0.1 -1.3
v -1.1 0.1 -1.4
v -1 0.1 -1.4
v 0.3 0.1 -1.4
v 0.4 0.1 -1.4
v 0.3 0.1 -1.5
v 0.4 0.1 -1.5
v -1.9 0.1 -1.9
v 1.9 0.1 -1.9
v -2 1.3 2
v 2 1.3 2
v -1.9 1.3 1.9
v 1.9 1.3 1.9
v -1.9 1.3 -1.9
v 1.9 1.3 -1.9
v -2 1.3 -2
v 2 1.3 -2

# faces
f 3/5/1 2/5/1 1/5/1
f 4/5/1 2/5/1 3/5/1
f 5/5/1 3/5/1 1/5/1
f 5/6/1 4/6/1 3/6/1
f 6/5/1 2/5/1 4/5/1
f 6/6/1 4/6/1 5/6/1
f 7/5/1 5/5/1 1/5/1
f 7/5/1 6/5/1 5/5/1
f 8/5/1 2/5/1 6/5/1
f 8/5/1 6/5/1 7/5/1
f 11/4/1 10/4/1 9/4/1
f 12/4/1 10/4/1 11/4/1
f 15/1/1 14/1/1 13/1/1
f 16/1/1 14/1/1 15/1/1
f 21/4/1 18/4/1 17/4/1
f 22/4/1 18/4/1 21/4/1
f 23/3/1 20/3/1 19/3/1
f 24/3/1 20/3/1 23/3/1
f 27/3/1 26/3/1 25/3/1
f 28/3/1 26/3/1 27/3/1
f 31/2/1 30/2/1 29/2/1
f 32/2/1 30/2/1 31/2/1
f 35/2/1 34/2/1 33/2/1
f 36/2/1 34/2/1 35/2/1
f 39/1/1 38/1/1 37/1/1
f 40/1/1 38/1/1 39/1/1
f 43/4/1 42/4/1 41/4/1
f 44/4/1 42/4/1 43/4/1
f 47/3/1 46/3/1 45/3/1
f 48/3/1 46/3/1 47/3/1
f 51/4/1 50/4/1 49/4/1
f 52/4/1 50/4/1 51/4/1
f 55/1/1 54/1/1 53/1/1
f 56/1/1 54/1/1 55/1/1
f 59/2/1 58/2/1 57/2/1
f 60/2/1 58/2/1 59/2/1
f 63/5/1 62/5/1 61/5/1
f 64/5/1 62/5/1 63/5/1
f 65/5/2 66/5/2 69/5/2
f 69/5/2 66/5/2 70/5/2
f 67/5/2 68/5/2 71/5/2
f 71/5/2 68/5/2 72/5/2
f 73/2/2 74/2/2 75/2/2
f 75/2/2 74/2/2 76/2/2
f 77/4/2 78/4/2 79/4/2
f 79/4/2 78/4/2 80/4/2
f 81/1/2 82/1/2 83/1/2
f 83/1/2 82/1/2 84/1/2
f 85/4/2 86/4/2 89/4/2
f 89/4/2 86/4/2 90/4/2
f 87/3/2 88/3/2 91/3/2
f 91/3/2 88/3/2 92/3/2
f 93/3/2 94/3/2 95/3/2
f 95/3/2 94/3/2 96/3/2
f 97/2/2 98/2/2 99/2/2
f 99/2/2 98/2/2 100/2/2
f 101/2/2 102/2/2 103/2/2
f 103/2/2 102/2/2 104/2/2
f 105/1/2 106/1/2 107/1/2
f 107/1/2 106/1/2 108/1/2
f 109/4/2 110/4/2 111/4/2
f 111/4/2 110/4/2 112/4/2
f 113/3/2 114/3/2 115/3/2
f 115/3/2 114/3/2 116/3/2
f 117/4/2 118/4/2 119/4/2
f 119/4/2 118/4/2 120/4/2
f 121/1/2 122/1/2 123/1/2
f 123/1/2 122/1/2 124/1/2
f 125/2/2 126/2/2 127/2/2
f 127/2/2 126/2/2 128/2/2
f 129/5/2 130/5/2 131/5/2
f 131/5/2 130/5/2 132/5/2
f 129/5/2 131/5/2 133/5/2
f 131/6/2 132/6/2 133/6/2
f 132/5/2 130/5/2 134/5/2
f 133/6/2 132/6/2 134/6/2
f 129/5/2 133/5/2 135/5/2
f 133/5/2 134/5/2 135/5/2
f 134/5/2 130/5/2 136/5/2
f 135/5/2 134/5/2 136/5/2
f 139/5/3 138/5/3 137/5/3
f 140/5/3 138/5/3 139/5/3
f 141/5/3 139/5/3 137/5/3
f 141/6/3 140/6/3 139/6/3
f 142/5/3 138/5/3 140/5/3
f 142/6/3 140/6/3 141/6/3
f 143/5/3 141/5/3 137/5/3
f 143/5/3 142/5/3 141/5/3
f 144/5/3 138/5/3 142/5/3
f 144/5/3 142/5/3 143/5/3
f 147/4/3 146/4/3 145/4/3
f 148/4/3 146/4/3 147/4/3
f 151/2/3 150/2/3 149/2/3
f 152/2/3 150/2/3 151/2/3
f 155/4/3 154/4/3 153/4/3
f 156/4/3 154/4/3 155/4/3
f 159/3/3 158/3/3 157/3/3
f 160/3/3 158/3/3 159/3/3
f 163/1/3 162/1/3 161/1/3
f 164/1/3 162/1/3 163/1/3
f 167/2/3 166/2/3 165/2/3
f 168/2/3 166/2/3 167/2/3
f 171/2/3 170/2/3 169/2/3
f 172/2/3 170/2/3 171/2/3
f 175/3/3 174/3/3 173/3/3
f 176/3/3 174/3/3 175/3/3
f 179/4/3 178/4/3 177/4/3
f 180/4/3 178/4/3 179/4/3
f 183/2/3 182/2/3 181/2/3
f 184/2/3 182/2/3 183/2/3
f 187/1/3 186/1/3 185/1/3
f 188/1/3 186/1/3 187/1/3
f 191/1/3 190/1/3 189/1/3
f 192/1/3 190/1/3 191/1/3
f 195/3/3 194/3/3 193/3/3
f 196/3/3 194/3/3 195/3/3
f 199/4/3 198/4/3 197/4/3
f 200/4/3 198/4/3 199/4/3
f 203/5/3 202/5/3 201/5/3
f 204/5/3 202/5/3 203/5/3
f 205/5/4 206/5/4 207/5/4
f 207/5/4 206/5/4 208/5/4
f 209/4/4 210/4/4 211/4/4
f 211/4/4 210/4/4 212/4/4
f 213/2/4 214/2/4 215/2/4
f 215/2/4 214/2/4 216/2/4
f 217/4/4 218/4/4 219/4/4
f 219/4/4 218/4/4 220/4/4
f 221/3/4 222/3/4 223/3/4
f 223/3/4 222/3/4 224/3/4
f 225/1/4 226/1/4 227/1/4
f 227/1/4 226/1/4 228/1/4
f 229/2/4 230/2/4 231/2/4
f 231/2/4 230/2/4 232/2/4
f 233/2/4 234/2/4 235/2/4
f 235/2/4 234/2/4 236/2/4
f 237/3/4 238/3/4 239/3/4
f 239/3/4 238/3/4 240/3/4
f 241/4/4 242/4/4 243/4/4
f 243/4/4 242/4/4 244/4/4
f 245/2/4 246/2/4 247/2/4
f 247/2/4 246/2/4 248/2/4
f 249/1/4 250/1/4 251/1/4
f 251/1/4 250/1/4 252/1/4
f 253/1/4 254/1/4 255/1/4
f 255/1/4 254/1/4 256/1/4
f 257/3/4 258/3/4 259/3/4
f 259/3/4 258/3/4 260/3/4
f 261/4/4 262/4/4 263/4/4
f 263/4/4 262/4/4 264/4/4
f 265/5/4 266/5/4 267/5/4
f 267/5/4 266/5/4 268/5/4
f 265/5/4 267/5/4 269/5/4
f 267/6/4 268/6/4 269/6/4
f 268/5/4 266/5/4 270/5/4
f 269/6/4 268/6/4 270/6/4
f 265/5/4 269/5/4 271/5/4
f 269/5/4 270/5/4 271/5/4
f 270/5/4 266/5/4 272/5/4
f 271/5/4 270/5/4 272/5/4
f 275/5/5 274/5/5 273/5/5
f 276/5/5 274/5/5 275/5/5
f 281/4/5 278/4/5 277/4/5
f 282/4/5 278/4/5 281/4/5
f 283/2/5 280/2/5 279/2/5
f 284/2/5 280/2/5 283/2/5
f 287/4/5 286/4/5 285/4/5
f 288/4/5 286/4/5 287/4/5
f 291/3/5 290/3/5 289/3/5
f 292/3/5 290/3/5 291/3/5
f 295/1/5 294/1/5 293/1/5
f 296/1/5 294/1/5 295/1/5
f 297/5/5 275/5/5 273/5/5
f 301/2/5 298/2/5 297/2/5
f 301/5/5 297/5/5 273/5/5
f 302/2/5 298/2/5 301/2/5
f 303/2/5 300/2/5 299/2/5
f 304/2/5 300/2/5 303/2/5
f 307/3/5 306/3/5 305/3/5
f 308/3/5 306/3/5 307/3/5
f 311/4/5 310/4/5 309/4/5
f 312/4/5 310/4/5 311/4/5
f 315/2/5 314/2/5 313/2/5
f 316/2/5 314/2/5 315/2/5
f 319/1/5 318/1/5 317/1/5
f 320/1/5 318/1/5 319/1/5
f 323/1/5 322/1/5 321/1/5
f 324/1/5 322/1/5 323/1/5
f 327/3/5 326/3/5 325/3/5
f 328/3/5 326/3/5 327/3/5
f 331/4/5 330/4/5 329/4/5
f 332/4/5 330/4/5 331/4/5
f 333/5/5 301/5/5 273/5/5
f 334/5/5 274/5/5 276/5/5
f 335/5/5 333/5/5 273/5/5
f 335/5/5 334/5/5 333/5/5
f 336/5/5 274/5/5 334/5/5
f 336/5/5 334/5/5 335/5/5
f 339/6/5 338/6/5 337/6/5
f 340/6/5 338/6/5 339/6/5
f 341/6/5 338/6/5 340/6/5
f 342/6/5 338/6/5 341/6/5
f 343/6/5 339/6/5 337/6/5
f 344/6/5 341/6/5 340/6/5
f 345/6/5 341/6/5 344/6/5
f 346/6/5 338/6/5 342/6/5
f 347/6/5 345/6/5 344/6/5
f 347/6/5 346/6/5 345/6/5
f 347/6/5 338/6/5 346/6/5
f 347/6/5 344/6/5 343/6/5
f 348/6/5 338/6/5 347/6/5
f 349/6/5 347/6/5 343/6/5
f 350/6/5 338/6/5 348/6/5
f 351/6/5 349/6/5 343/6/5
f 351/6/5 350/6/5 349/6/5
f 352/6/5 350/6/5 351/6/5
f 353/6/5 351/6/5 343/6/5
f 354/6/5 350/6/5 352/6/5
f 355/6/5 350/6/5 354/6/5
f 355/6/5 354/6/5 353/6/5
f 356/6/5 350/6/5 355/6/5
f 357/6/5 355/6/5 353/6/5
f 358/6/5 350/6/5 356/6/5
f 359/6/5 343/6/5 337/6/5
f 359/6/5 358/6/5 357/6/5
f 359/6/5 353/6/5 343/6/5
f 359/6/5 357/6/5 353/6/5
f 360/6/5 358/6/5 359/6/5
f 361/6/5 350/6/5 358/6/5
f 361/6/5 358/6/5 360/6/5
f 361/6/5 338/6/5 350/6/5
f 362/6/5 338/6/5 361/6/5
f 364/6/5 361/6/5 360/6/5
f 365/6/5 361/6/5 364/6/5
f 366/6/5 338/6/5 362/6/5
f 367/6/5 365/6/5 364/6/5
f 367/6/5 366/6/5 365/6/5
f 367/6/5 364/6/5 363/6/5
f 368/6/5 366/6/5 367/6/5
f 369/6/5 367/6/5 363/6/5
f 370/6/5 366/6/5 368/6/5
f 371/6/5 369/6/5 363/6/5
f 371/6/5 370/6/5 369/6/5
f 372/6/5 370/6/5 371/6/5
f 373/6/5 371/6/5 363/6/5
f 374/6/5 370/6/5 372/6/5
f 375/6/5 370/6/5 374/6/5
f 375/6/5 374/6/5 373/6/5
f 376/6/5 370/6/5 375/6/5
f 377/6/5 375/6/5 373/6/5
f 378/6/5 370/6/5 376/6/5
f 379/6/5 373/6/5 363/6/5
f 379/6/5 378/6/5 377/6/5
f 379/6/5 377/6/5 373/6/5
f 380/6/5 378/6/5 379/6/5
f 381/6/5 379/6/5 363/6/5
f 382/6/5 378/6/5 380/6/5
f 383/6/5 366/6/5 370/6/5
f 383/6/5 382/6/5 381/6/5
f 383/6/5 378/6/5 382/6/5
f 383/6/5 370/6/5 378/6/5
f 384/6/5 366/6/5 383/6/5
f 385/6/5 383/6/5 381/6/5
f 386/6/5 366/6/5 384/6/5
f 387/6/5 385/6/5 381/6/5
f 387/6/5 386/6/5 385/6/5
f 388/6/5 386/6/5 387/6/5
f 389/6/5 387/6/5 381/6/5
f 390/6/5 386/6/5 388/6/5
f 391/6/5 386/6/5 390/6/5
f 392/6/5 386/6/5 391/6/5
f 393/6/5 390/6/5 389/6/5
f 393/6/5 391/6/5 390/6/5
f 394/6/5 386/6/5 392/6/5
f 395/6/5 381/6/5 363/6/5
f 395/6/5 394/6/5 393/6/5
f 395/6/5 389/6/5 381/6/5
f 395/6/5 393/6/5 389/6/5
f 396/6/5 338/6/5 366/6/5
f 396/6/5 394/6/5 395/6/5
f 396/6/5 386/6/5 394/6/5
f 396/6/5 366/6/5 386/6/5
f 397/5/6 398/5/6 399/5/6
f 399/5/6 398/5/6 400/5/6
f 397/5/6 399/5/6 401/5/6
f 399/6/6 400/6/6 401/6/6
f 400/5/6 398/5/6 402/5/6
f 401/6/6 400/6/6 402/6/6
f 397/5/6 401/5/6 403/5/6
f 401/5/6 402/5/6 403/5/6
f 402/5/6 398/5/6 404/5/6
f 403/5/6 402/5/6 404/5/6
