# MagicaVoxel @ Ephtracy

# group
o 

# material
mtllib naked gotchi.vox.mtl
usemtl palette

# normals
vn 0 0 -1
vn 0 0 1
vn -1 0 0
vn 1 0 0
vn 0 -1 0
vn 0 1 0

# texcoords
vt 0.716797 0.5
vt 0.900391 0.5
vt 0.958984 0.5

# verts
v -0.6 0.3 -0.8
v -0.4 0.3 -0.8
v -0.2 0.3 -0.8
v -1.19209e-07 0.3 -0.8
v 0.2 0.3 -0.8
v 0.4 0.3 -0.8
v 0.6 0.3 -0.8
v 0.8 0.3 -0.8
v -0.4 0.5 -0.8
v -0.2 0.5 -0.8
v -1.19209e-07 0.5 -0.8
v 0.2 0.5 -0.8
v 0.4 0.5 -0.8
v 0.6 0.5 -0.8
v -0.6 2.7 -0.8
v 0.8 2.7 -0.8
v -0.9 0.3 -0.5
v -0.6 0.3 -0.5
v 0.8 0.3 -0.5
v 1.1 0.3 -0.5
v -0.6 0.5 -0.5
v 0.8 0.5 -0.5
v -0.9 2.5 -0.5
v -0.6 2.5 -0.5
v 0.8 2.5 -0.5
v 1.1 2.5 -0.5
v -0.3 2.7 -0.5
v 0.5 2.7 -0.5
v -0.3 3 -0.5
v 0.5 3 -0.5
v -1.3 0.8 -0.3
v -0.9 0.8 -0.3
v 1.1 0.8 -0.3
v 1.5 0.8 -0.3
v -1.3 1.1 -0.3
v -0.9 1.1 -0.3
v 1.1 1.1 -0.3
v 1.5 1.1 -0.3
v -0.9 0.3 -0.1
v -0.6 0.3 -0.1
v 0.8 0.3 -0.1
v 1.1 0.3 -0.1
v -0.9 0.5 -0.1
v -0.7 0.5 -0.1
v 0.9 0.5 -0.1
v 1.1 0.5 -0.1
v -0.7 0.6 -0.1
v -0.6 0.6 -0.1
v 0.8 0.6 -0.1
v 0.9 0.6 -0.1
v -0.2 2.6 0.2
v 0.4 2.6 0.2
v -0.2 2.9 0.2
v 0.4 2.9 0.2
v -0.9 0.3 0.3
v -0.6 0.3 0.3
v 0.8 0.3 0.3
v 1.1 0.3 0.3
v -0.9 0.5 0.3
v -0.7 0.5 0.3
v 0.9 0.5 0.3
v 1.1 0.5 0.3
v -0.7 0.6 0.3
v -0.6 0.6 0.3
v 0.8 0.6 0.3
v 0.9 0.6 0.3
v -0.6 0.5 0.5
v -0.5 0.5 0.5
v 0.7 0.5 0.5
v 0.8 0.5 0.5
v -0.6 2.4 0.5
v -0.5 2.4 0.5
v 0.7 2.4 0.5
v 0.8 2.4 0.5
v -0.5 2.6 0.5
v 0.7 2.6 0.5
v -0.6 0.3 0.6
v -0.4 0.3 0.6
v -0.2 0.3 0.6
v -1.19209e-07 0.3 0.6
v 0.2 0.3 0.6
v 0.4 0.3 0.6
v 0.6 0.3 0.6
v 0.8 0.3 0.6
v -0.6 0.5 0.6
v -0.5 0.5 0.6
v -0.4 0.5 0.6
v -0.2 0.5 0.6
v -1.19209e-07 0.5 0.6
v 0.2 0.5 0.6
v 0.4 0.5 0.6
v 0.6 0.5 0.6
v 0.7 0.5 0.6
v 0.8 0.5 0.6
v -0.4 1.4 0.6
v -0.1 1.4 0.6
v 0.3 1.4 0.6
v 0.6 1.4 0.6
v -0.4 1.5 0.6
v -0.1 1.5 0.6
v 0.3 1.5 0.6
v 0.6 1.5 0.6
v -0.4 1.7 0.6
v -0.3 1.7 0.6
v -0.2 1.7 0.6
v -0.1 1.7 0.6
v 0.3 1.7 0.6
v 0.4 1.7 0.6
v 0.5 1.7 0.6
v 0.6 1.7 0.6
v -0.4 1.8 0.6
v -0.3 1.8 0.6
v -0.2 1.8 0.6
v -0.1 1.8 0.6
v 0.3 1.8 0.6
v 0.4 1.8 0.6
v 0.5 1.8 0.6
v 0.6 1.8 0.6
v -0.5 2.4 0.6
v 0.7 2.4 0.6
v -0.6 0.3 -0.6
v -0.4 0.3 -0.6
v -0.2 0.3 -0.6
v -1.19209e-07 0.3 -0.6
v 0.2 0.3 -0.6
v 0.4 0.3 -0.6
v 0.6 0.3 -0.6
v 0.8 0.3 -0.6
v -0.6 0.5 -0.6
v -0.5 0.5 -0.6
v -0.4 0.5 -0.6
v -0.2 0.5 -0.6
v -1.19209e-07 0.5 -0.6
v 0.2 0.5 -0.6
v 0.4 0.5 -0.6
v 0.6 0.5 -0.6
v 0.7 0.5 -0.6
v 0.8 0.5 -0.6
v -0.5 2.4 -0.6
v 0.7 2.4 -0.6
v -0.6 0.5 -0.5
v -0.5 0.5 -0.5
v 0.7 0.5 -0.5
v 0.8 0.5 -0.5
v -0.6 2.4 -0.5
v -0.5 2.4 -0.5
v 0.7 2.4 -0.5
v 0.8 2.4 -0.5
v -0.5 2.6 -0.5
v 0.7 2.6 -0.5
v -0.9 0.3 -0.3
v -0.6 0.3 -0.3
v 0.8 0.3 -0.3
v 1.1 0.3 -0.3
v -0.9 0.5 -0.3
v -0.7 0.5 -0.3
v 0.9 0.5 -0.3
v 1.1 0.5 -0.3
v -0.7 0.6 -0.3
v -0.6 0.6 -0.3
v 0.8 0.6 -0.3
v 0.9 0.6 -0.3
v -0.2 2.6 -0.2
v 0.4 2.6 -0.2
v -0.2 2.9 -0.2
v 0.4 2.9 -0.2
v -1.3 0.8 0
v -0.9 0.8 0
v 1.1 0.8 0
v 1.5 0.8 0
v -1.3 1.1 0
v -0.9 1.1 0
v 1.1 1.1 0
v 1.5 1.1 0
v -0.9 0.3 0.1
v -0.6 0.3 0.1
v 0.8 0.3 0.1
v 1.1 0.3 0.1
v -0.9 0.5 0.1
v -0.7 0.5 0.1
v 0.9 0.5 0.1
v 1.1 0.5 0.1
v -0.7 0.6 0.1
v -0.6 0.6 0.1
v 0.8 0.6 0.1
v 0.9 0.6 0.1
v -0.9 0.3 0.5
v -0.6 0.3 0.5
v 0.8 0.3 0.5
v 1.1 0.3 0.5
v -0.6 0.5 0.5
v 0.8 0.5 0.5
v -0.9 2.5 0.5
v -0.6 2.5 0.5
v 0.8 2.5 0.5
v 1.1 2.5 0.5
v -0.3 2.7 0.5
v 0.5 2.7 0.5
v -0.3 3 0.5
v 0.5 3 0.5
v -0.6 0.3 0.8
v -0.4 0.3 0.8
v -0.2 0.3 0.8
v -1.19209e-07 0.3 0.8
v 0.2 0.3 0.8
v 0.4 0.3 0.8
v 0.6 0.3 0.8
v 0.8 0.3 0.8
v -0.4 0.5 0.8
v -0.2 0.5 0.8
v -1.19209e-07 0.5 0.8
v 0.2 0.5 0.8
v 0.4 0.5 0.8
v 0.6 0.5 0.8
v -0.5 1.7 0.8
v -0.3 1.7 0.8
v -0.2 1.7 0.8
v -1.19209e-07 1.7 0.8
v 0.2 1.7 0.8
v 0.4 1.7 0.8
v 0.5 1.7 0.8
v 0.7 1.7 0.8
v -0.5 1.9 0.8
v -0.3 1.9 0.8
v -0.2 1.9 0.8
v -1.19209e-07 1.9 0.8
v 0.2 1.9 0.8
v 0.4 1.9 0.8
v 0.5 1.9 0.8
v 0.7 1.9 0.8
v -0.6 2.7 0.8
v 0.8 2.7 0.8
v -1.3 0.8 -0.3
v -1.3 1.1 -0.3
v -1.3 0.8 0
v -1.3 1.1 0
v -0.9 0.3 -0.5
v -0.9 2.5 -0.5
v -0.9 0.3 -0.3
v -0.9 0.5 -0.3
v -0.9 0.8 -0.3
v -0.9 1.1 -0.3
v -0.9 0.3 -0.1
v -0.9 0.5 -0.1
v -0.9 0.8 0
v -0.9 1.1 0
v -0.9 0.3 0.1
v -0.9 0.5 0.1
v -0.9 0.3 0.3
v -0.9 0.5 0.3
v -0.9 0.3 0.5
v -0.9 2.5 0.5
v -0.6 0.3 -0.8
v -0.6 2.7 -0.8
v -0.6 0.3 -0.6
v -0.6 0.5 -0.6
v -0.6 0.5 -0.5
v -0.6 2.5 -0.5
v -0.6 0.5 0.5
v -0.6 2.5 0.5
v -0.6 0.3 0.6
v -0.6 0.5 0.6
v -0.6 0.3 0.8
v -0.6 2.7 0.8
v -0.3 2.7 -0.5
v -0.3 3 -0.5
v -0.3 2.7 0.5
v -0.3 3 0.5
v -0.2 0.3 -0.8
v -0.2 0.5 -0.8
v -0.2 0.3 -0.6
v -0.2 0.5 -0.6
v -0.2 0.3 0.6
v -0.2 0.5 0.6
v -0.2 0.3 0.8
v -0.2 0.5 0.8
v 0.2 0.3 -0.8
v 0.2 0.5 -0.8
v 0.2 0.3 -0.6
v 0.2 0.5 -0.6
v 0.2 0.3 0.6
v 0.2 0.5 0.6
v 0.2 0.3 0.8
v 0.2 0.5 0.8
v 0.4 2.6 -0.2
v 0.4 2.9 -0.2
v 0.4 2.6 0.2
v 0.4 2.9 0.2
v 0.6 0.3 -0.8
v 0.6 0.5 -0.8
v 0.6 0.3 -0.6
v 0.6 0.5 -0.6
v 0.6 0.3 0.6
v 0.6 0.5 0.6
v 0.6 0.3 0.8
v 0.6 0.5 0.8
v 0.7 0.5 -0.6
v 0.7 2.4 -0.6
v 0.7 0.5 -0.5
v 0.7 2.4 -0.5
v 0.7 2.6 -0.5
v 0.7 0.5 0.5
v 0.7 2.4 0.5
v 0.7 2.6 0.5
v 0.7 0.5 0.6
v 0.7 2.4 0.6
v 0.8 0.3 -0.5
v 0.8 0.5 -0.5
v 0.8 2.4 -0.5
v 0.8 0.3 -0.3
v 0.8 0.6 -0.3
v 0.8 0.3 -0.1
v 0.8 0.6 -0.1
v 0.8 0.3 0.1
v 0.8 0.6 0.1
v 0.8 0.3 0.3
v 0.8 0.6 0.3
v 0.8 0.3 0.5
v 0.8 0.5 0.5
v 0.8 2.4 0.5
v 0.9 0.5 -0.3
v 0.9 0.6 -0.3
v 0.9 0.5 -0.1
v 0.9 0.6 -0.1
v 0.9 0.5 0.1
v 0.9 0.6 0.1
v 0.9 0.5 0.3
v 0.9 0.6 0.3
v -0.7 0.5 -0.3
v -0.7 0.6 -0.3
v -0.7 0.5 -0.1
v -0.7 0.6 -0.1
v -0.7 0.5 0.1
v -0.7 0.6 0.1
v -0.7 0.5 0.3
v -0.7 0.6 0.3
v -0.6 0.3 -0.5
v -0.6 0.5 -0.5
v -0.6 2.4 -0.5
v -0.6 0.3 -0.3
v -0.6 0.6 -0.3
v -0.6 0.3 -0.1
v -0.6 0.6 -0.1
v -0.6 0.3 0.1
v -0.6 0.6 0.1
v -0.6 0.3 0.3
v -0.6 0.6 0.3
v -0.6 0.3 0.5
v -0.6 0.5 0.5
v -0.6 2.4 0.5
v -0.5 0.5 -0.6
v -0.5 2.4 -0.6
v -0.5 0.5 -0.5
v -0.5 2.4 -0.5
v -0.5 2.6 -0.5
v -0.5 0.5 0.5
v -0.5 2.4 0.5
v -0.5 2.6 0.5
v -0.5 0.5 0.6
v -0.5 2.4 0.6
v -0.4 0.3 -0.8
v -0.4 0.5 -0.8
v -0.4 0.3 -0.6
v -0.4 0.5 -0.6
v -0.4 0.3 0.6
v -0.4 0.5 0.6
v -0.4 0.3 0.8
v -0.4 0.5 0.8
v -0.2 2.6 -0.2
v -0.2 2.9 -0.2
v -0.2 2.6 0.2
v -0.2 2.9 0.2
v -1.19209e-07 0.3 -0.8
v -1.19209e-07 0.5 -0.8
v -1.19209e-07 0.3 -0.6
v -1.19209e-07 0.5 -0.6
v -1.19209e-07 0.3 0.6
v -1.19209e-07 0.5 0.6
v -1.19209e-07 0.3 0.8
v -1.19209e-07 0.5 0.8
v 0.4 0.3 -0.8
v 0.4 0.5 -0.8
v 0.4 0.3 -0.6
v 0.4 0.5 -0.6
v 0.4 0.3 0.6
v 0.4 0.5 0.6
v 0.4 0.3 0.8
v 0.4 0.5 0.8
v 0.5 2.7 -0.5
v 0.5 3 -0.5
v 0.5 2.7 0.5
v 0.5 3 0.5
v 0.8 0.3 -0.8
v 0.8 2.7 -0.8
v 0.8 0.3 -0.6
v 0.8 0.5 -0.6
v 0.8 0.5 -0.5
v 0.8 2.5 -0.5
v 0.8 0.5 0.5
v 0.8 2.5 0.5
v 0.8 0.3 0.6
v 0.8 0.5 0.6
v 0.8 0.3 0.8
v 0.8 2.7 0.8
v 1.1 0.3 -0.5
v 1.1 2.5 -0.5
v 1.1 0.3 -0.3
v 1.1 0.5 -0.3
v 1.1 0.8 -0.3
v 1.1 1.1 -0.3
v 1.1 0.3 -0.1
v 1.1 0.5 -0.1
v 1.1 0.8 0
v 1.1 1.1 0
v 1.1 0.3 0.1
v 1.1 0.5 0.1
v 1.1 0.3 0.3
v 1.1 0.5 0.3
v 1.1 0.3 0.5
v 1.1 2.5 0.5
v 1.5 0.8 -0.3
v 1.5 1.1 -0.3
v 1.5 0.8 0
v 1.5 1.1 0
v -0.9 0.3 -0.5
v -0.9 0.3 -0.3
v -0.9 0.3 -0.1
v -0.9 0.3 0.1
v -0.9 0.3 0.3
v -0.9 0.3 0.5
v -0.6 0.3 -0.8
v -0.6 0.3 -0.6
v -0.6 0.3 -0.5
v -0.6 0.3 -0.3
v -0.6 0.3 -0.1
v -0.6 0.3 0.1
v -0.6 0.3 0.3
v -0.6 0.3 0.5
v -0.6 0.3 0.6
v -0.6 0.3 0.8
v -0.4 0.3 -0.8
v -0.4 0.3 -0.6
v -0.4 0.3 0.6
v -0.4 0.3 0.8
v -0.2 0.3 -0.8
v -0.2 0.3 -0.6
v -0.2 0.3 0.6
v -0.2 0.3 0.8
v -1.19209e-07 0.3 -0.8
v -1.19209e-07 0.3 -0.6
v -1.19209e-07 0.3 0.6
v -1.19209e-07 0.3 0.8
v 0.2 0.3 -0.8
v 0.2 0.3 -0.6
v 0.2 0.3 0.6
v 0.2 0.3 0.8
v 0.4 0.3 -0.8
v 0.4 0.3 -0.6
v 0.4 0.3 0.6
v 0.4 0.3 0.8
v 0.6 0.3 -0.8
v 0.6 0.3 -0.6
v 0.6 0.3 0.6
v 0.6 0.3 0.8
v 0.8 0.3 -0.8
v 0.8 0.3 -0.6
v 0.8 0.3 -0.5
v 0.8 0.3 -0.3
v 0.8 0.3 -0.1
v 0.8 0.3 0.1
v 0.8 0.3 0.3
v 0.8 0.3 0.5
v 0.8 0.3 0.6
v 0.8 0.3 0.8
v 1.1 0.3 -0.5
v 1.1 0.3 -0.3
v 1.1 0.3 -0.1
v 1.1 0.3 0.1
v 1.1 0.3 0.3
v 1.1 0.3 0.5
v -0.9 0.5 -0.3
v -0.9 0.5 -0.1
v -0.9 0.5 0.1
v -0.9 0.5 0.3
v -0.7 0.5 -0.3
v -0.7 0.5 -0.1
v -0.7 0.5 0.1
v -0.7 0.5 0.3
v -0.6 0.5 -0.6
v -0.6 0.5 -0.5
v -0.6 0.5 0.5
v -0.6 0.5 0.6
v -0.5 0.5 -0.6
v -0.5 0.5 -0.5
v -0.5 0.5 0.5
v -0.5 0.5 0.6
v -0.4 0.5 -0.8
v -0.4 0.5 -0.6
v -0.4 0.5 0.6
v -0.4 0.5 0.8
v -0.2 0.5 -0.8
v -0.2 0.5 -0.6
v -0.2 0.5 0.6
v -0.2 0.5 0.8
v -1.19209e-07 0.5 -0.8
v -1.19209e-07 0.5 -0.6
v -1.19209e-07 0.5 0.6
v -1.19209e-07 0.5 0.8
v 0.2 0.5 -0.8
v 0.2 0.5 -0.6
v 0.2 0.5 0.6
v 0.2 0.5 0.8
v 0.4 0.5 -0.8
v 0.4 0.5 -0.6
v 0.4 0.5 0.6
v 0.4 0.5 0.8
v 0.6 0.5 -0.8
v 0.6 0.5 -0.6
v 0.6 0.5 0.6
v 0.6 0.5 0.8
v 0.7 0.5 -0.6
v 0.7 0.5 -0.5
v 0.7 0.5 0.5
v 0.7 0.5 0.6
v 0.8 0.5 -0.6
v 0.8 0.5 -0.5
v 0.8 0.5 0.5
v 0.8 0.5 0.6
v 0.9 0.5 -0.3
v 0.9 0.5 -0.1
v 0.9 0.5 0.1
v 0.9 0.5 0.3
v 1.1 0.5 -0.3
v 1.1 0.5 -0.1
v 1.1 0.5 0.1
v 1.1 0.5 0.3
v -0.7 0.6 -0.3
v -0.7 0.6 -0.1
v -0.7 0.6 0.1
v -0.7 0.6 0.3
v -0.6 0.6 -0.3
v -0.6 0.6 -0.1
v -0.6 0.6 0.1
v -0.6 0.6 0.3
v 0.8 0.6 -0.3
v 0.8 0.6 -0.1
v 0.8 0.6 0.1
v 0.8 0.6 0.3
v 0.9 0.6 -0.3
v 0.9 0.6 -0.1
v 0.9 0.6 0.1
v 0.9 0.6 0.3
v -1.3 0.8 -0.3
v -1.3 0.8 0
v -0.9 0.8 -0.3
v -0.9 0.8 0
v 1.1 0.8 -0.3
v 1.1 0.8 0
v 1.5 0.8 -0.3
v 1.5 0.8 0
v -0.6 2.4 -0.5
v -0.6 2.4 0.5
v -0.5 2.4 -0.6
v -0.5 2.4 -0.5
v -0.5 2.4 0.5
v -0.5 2.4 0.6
v 0.7 2.4 -0.6
v 0.7 2.4 -0.5
v 0.7 2.4 0.5
v 0.7 2.4 0.6
v 0.8 2.4 -0.5
v 0.8 2.4 0.5
v -0.5 2.6 -0.5
v -0.5 2.6 0.5
v -0.2 2.6 -0.2
v -0.2 2.6 0.2
v 0.4 2.6 -0.2
v 0.4 2.6 0.2
v 0.7 2.6 -0.5
v 0.7 2.6 0.5
v -0.2 2.9 -0.2
v -0.2 2.9 0.2
v 0.4 2.9 -0.2
v 0.4 2.9 0.2
v -1.3 1.1 -0.3
v -1.3 1.1 0
v -0.9 1.1 -0.3
v -0.9 1.1 0
v 1.1 1.1 -0.3
v 1.1 1.1 0
v 1.5 1.1 -0.3
v 1.5 1.1 0
v -0.9 2.5 -0.5
v -0.9 2.5 0.5
v -0.6 2.5 -0.5
v -0.6 2.5 0.5
v 0.8 2.5 -0.5
v 0.8 2.5 0.5
v 1.1 2.5 -0.5
v 1.1 2.5 0.5
v -0.6 2.7 -0.8
v -0.6 2.7 0.8
v -0.3 2.7 -0.5
v -0.3 2.7 0.5
v 0.5 2.7 -0.5
v 0.5 2.7 0.5
v 0.8 2.7 -0.8
v 0.8 2.7 0.8
v -0.3 3 -0.5
v -0.3 3 0.5
v 0.5 3 -0.5
v 0.5 3 0.5

# faces
f 9/3/1 2/3/1 1/3/1
f 10/3/1 4/3/1 3/3/1
f 11/3/1 4/3/1 10/3/1
f 12/3/1 6/3/1 5/3/1
f 13/3/1 6/3/1 12/3/1
f 14/3/1 8/3/1 7/3/1
f 15/3/1 13/3/1 12/3/1
f 15/3/1 14/3/1 13/3/1
f 15/3/1 9/3/1 1/3/1
f 15/3/1 11/3/1 10/3/1
f 15/3/1 12/3/1 11/3/1
f 15/3/1 10/3/1 9/3/1
f 16/3/1 8/3/1 14/3/1
f 16/3/1 14/3/1 15/3/1
f 21/3/1 18/3/1 17/3/1
f 22/3/1 20/3/1 19/3/1
f 23/3/1 21/3/1 17/3/1
f 24/3/1 21/3/1 23/3/1
f 25/3/1 20/3/1 22/3/1
f 26/3/1 20/3/1 25/3/1
f 29/3/1 28/3/1 27/3/1
f 30/3/1 28/3/1 29/3/1
f 35/3/1 32/3/1 31/3/1
f 36/3/1 32/3/1 35/3/1
f 37/3/1 34/3/1 33/3/1
f 38/3/1 34/3/1 37/3/1
f 43/3/1 40/3/1 39/3/1
f 44/3/1 40/3/1 43/3/1
f 45/3/1 42/3/1 41/3/1
f 46/3/1 42/3/1 45/3/1
f 47/3/1 40/3/1 44/3/1
f 48/3/1 40/3/1 47/3/1
f 49/3/1 45/3/1 41/3/1
f 50/3/1 45/3/1 49/3/1
f 53/3/1 52/3/1 51/3/1
f 54/3/1 52/3/1 53/3/1
f 59/3/1 56/3/1 55/3/1
f 60/3/1 56/3/1 59/3/1
f 61/3/1 58/3/1 57/3/1
f 62/3/1 58/3/1 61/3/1
f 63/3/1 56/3/1 60/3/1
f 64/3/1 56/3/1 63/3/1
f 65/3/1 61/3/1 57/3/1
f 66/3/1 61/3/1 65/3/1
f 71/3/1 68/3/1 67/3/1
f 72/3/1 68/3/1 71/3/1
f 73/3/1 70/3/1 69/3/1
f 74/3/1 70/3/1 73/3/1
f 75/3/1 73/3/1 72/3/1
f 76/3/1 73/3/1 75/3/1
f 85/3/1 78/3/1 77/3/1
f 86/3/1 78/3/1 85/3/1
f 87/3/1 78/3/1 86/3/1
f 88/3/1 80/3/1 79/3/1
f 89/3/1 80/3/1 88/3/1
f 90/3/1 82/3/1 81/3/1
f 91/3/1 82/3/1 90/3/1
f 92/3/1 84/3/1 83/3/1
f 93/3/1 84/3/1 92/3/1
f 94/3/1 84/3/1 93/3/1
f 95/3/1 91/3/1 90/3/1
f 95/3/1 87/3/1 86/3/1
f 95/3/1 93/3/1 92/3/1
f 95/3/1 92/3/1 91/3/1
f 95/3/1 89/3/1 88/3/1
f 95/3/1 90/3/1 89/3/1
f 95/3/1 88/3/1 87/3/1
f 96/3/1 93/3/1 95/3/1
f 97/3/1 93/3/1 96/3/1
f 98/3/1 93/3/1 97/3/1
f 99/3/1 95/3/1 86/3/1
f 99/1/1 96/1/1 95/1/1
f 100/3/1 97/3/1 96/3/1
f 100/1/1 96/1/1 99/1/1
f 101/1/1 98/1/1 97/1/1
f 101/3/1 97/3/1 100/3/1
f 102/3/1 93/3/1 98/3/1
f 102/1/1 98/1/1 101/1/1
f 103/3/1 101/3/1 100/3/1
f 103/3/1 100/3/1 99/3/1
f 103/3/1 102/3/1 101/3/1
f 103/3/1 99/3/1 86/3/1
f 104/3/1 102/3/1 103/3/1
f 105/3/1 102/3/1 104/3/1
f 106/3/1 102/3/1 105/3/1
f 107/3/1 102/3/1 106/3/1
f 108/3/1 102/3/1 107/3/1
f 109/3/1 102/3/1 108/3/1
f 110/3/1 93/3/1 102/3/1
f 110/3/1 102/3/1 109/3/1
f 111/3/1 103/3/1 86/3/1
f 111/2/1 104/2/1 103/2/1
f 112/1/1 105/1/1 104/1/1
f 112/2/1 104/2/1 111/2/1
f 113/2/1 106/2/1 105/2/1
f 113/1/1 105/1/1 112/1/1
f 114/3/1 107/3/1 106/3/1
f 114/2/1 106/2/1 113/2/1
f 115/2/1 108/2/1 107/2/1
f 115/3/1 107/3/1 114/3/1
f 116/1/1 109/1/1 108/1/1
f 116/2/1 108/2/1 115/2/1
f 117/2/1 110/2/1 109/2/1
f 117/1/1 109/1/1 116/1/1
f 118/3/1 93/3/1 110/3/1
f 118/2/1 110/2/1 117/2/1
f 119/3/1 115/3/1 114/3/1
f 119/3/1 117/3/1 116/3/1
f 119/3/1 118/3/1 117/3/1
f 119/3/1 114/3/1 113/3/1
f 119/3/1 113/3/1 112/3/1
f 119/3/1 112/3/1 111/3/1
f 119/3/1 111/3/1 86/3/1
f 119/3/1 116/3/1 115/3/1
f 120/3/1 93/3/1 118/3/1
f 120/3/1 118/3/1 119/3/1
f 121/3/2 122/3/2 129/3/2
f 129/3/2 122/3/2 130/3/2
f 130/3/2 122/3/2 131/3/2
f 123/3/2 124/3/2 132/3/2
f 132/3/2 124/3/2 133/3/2
f 125/3/2 126/3/2 134/3/2
f 134/3/2 126/3/2 135/3/2
f 127/3/2 128/3/2 136/3/2
f 136/3/2 128/3/2 137/3/2
f 137/3/2 128/3/2 138/3/2
f 134/3/2 135/3/2 139/3/2
f 130/3/2 131/3/2 139/3/2
f 136/3/2 137/3/2 139/3/2
f 135/3/2 136/3/2 139/3/2
f 132/3/2 133/3/2 139/3/2
f 133/3/2 134/3/2 139/3/2
f 131/3/2 132/3/2 139/3/2
f 139/3/2 137/3/2 140/3/2
f 141/3/2 142/3/2 145/3/2
f 145/3/2 142/3/2 146/3/2
f 143/3/2 144/3/2 147/3/2
f 147/3/2 144/3/2 148/3/2
f 146/3/2 147/3/2 149/3/2
f 149/3/2 147/3/2 150/3/2
f 151/3/2 152/3/2 155/3/2
f 155/3/2 152/3/2 156/3/2
f 153/3/2 154/3/2 157/3/2
f 157/3/2 154/3/2 158/3/2
f 156/3/2 152/3/2 159/3/2
f 159/3/2 152/3/2 160/3/2
f 153/3/2 157/3/2 161/3/2
f 161/3/2 157/3/2 162/3/2
f 163/3/2 164/3/2 165/3/2
f 165/3/2 164/3/2 166/3/2
f 167/3/2 168/3/2 171/3/2
f 171/3/2 168/3/2 172/3/2
f 169/3/2 170/3/2 173/3/2
f 173/3/2 170/3/2 174/3/2
f 175/3/2 176/3/2 179/3/2
f 179/3/2 176/3/2 180/3/2
f 177/3/2 178/3/2 181/3/2
f 181/3/2 178/3/2 182/3/2
f 180/3/2 176/3/2 183/3/2
f 183/3/2 176/3/2 184/3/2
f 177/3/2 181/3/2 185/3/2
f 185/3/2 181/3/2 186/3/2
f 187/3/2 188/3/2 191/3/2
f 189/3/2 190/3/2 192/3/2
f 187/3/2 191/3/2 193/3/2
f 193/3/2 191/3/2 194/3/2
f 192/3/2 190/3/2 195/3/2
f 195/3/2 190/3/2 196/3/2
f 197/3/2 198/3/2 199/3/2
f 199/3/2 198/3/2 200/3/2
f 201/3/2 202/3/2 209/3/2
f 203/3/2 204/3/2 210/3/2
f 210/3/2 204/3/2 211/3/2
f 205/3/2 206/3/2 212/3/2
f 212/3/2 206/3/2 213/3/2
f 207/3/2 208/3/2 214/3/2
f 212/3/2 213/3/2 215/3/2
f 213/3/2 214/3/2 215/3/2
f 201/3/2 209/3/2 215/3/2
f 210/3/2 211/3/2 215/3/2
f 211/3/2 212/3/2 215/3/2
f 209/3/2 210/3/2 215/3/2
f 215/3/2 214/3/2 216/3/2
f 216/3/2 214/3/2 217/3/2
f 217/3/2 214/3/2 218/3/2
f 218/3/2 214/3/2 219/3/2
f 219/3/2 214/3/2 220/3/2
f 220/3/2 214/3/2 221/3/2
f 214/3/2 208/3/2 222/3/2
f 221/3/2 214/3/2 222/3/2
f 201/3/2 215/3/2 223/3/2
f 215/2/2 216/2/2 223/2/2
f 216/1/2 217/1/2 224/1/2
f 223/2/2 216/2/2 224/2/2
f 217/2/2 218/2/2 225/2/2
f 224/1/2 217/1/2 225/1/2
f 218/3/2 219/3/2 226/3/2
f 225/2/2 218/2/2 226/2/2
f 219/2/2 220/2/2 227/2/2
f 226/3/2 219/3/2 227/3/2
f 220/1/2 221/1/2 228/1/2
f 227/2/2 220/2/2 228/2/2
f 221/2/2 222/2/2 229/2/2
f 228/1/2 221/1/2 229/1/2
f 222/3/2 208/3/2 230/3/2
f 229/2/2 222/2/2 230/2/2
f 226/3/2 227/3/2 231/3/2
f 228/3/2 229/3/2 231/3/2
f 229/3/2 230/3/2 231/3/2
f 225/3/2 226/3/2 231/3/2
f 224/3/2 225/3/2 231/3/2
f 223/3/2 224/3/2 231/3/2
f 201/3/2 223/3/2 231/3/2
f 227/3/2 228/3/2 231/3/2
f 230/3/2 208/3/2 232/3/2
f 231/3/2 230/3/2 232/3/2
f 235/3/3 234/3/3 233/3/3
f 236/3/3 234/3/3 235/3/3
f 239/3/3 238/3/3 237/3/3
f 240/3/3 238/3/3 239/3/3
f 241/3/3 238/3/3 240/3/3
f 242/3/3 238/3/3 241/3/3
f 244/3/3 241/3/3 240/3/3
f 245/3/3 241/3/3 244/3/3
f 245/3/3 244/3/3 243/3/3
f 246/3/3 238/3/3 242/3/3
f 247/3/3 245/3/3 243/3/3
f 247/3/3 246/3/3 245/3/3
f 248/3/3 246/3/3 247/3/3
f 250/3/3 246/3/3 248/3/3
f 251/3/3 250/3/3 249/3/3
f 252/3/3 238/3/3 246/3/3
f 252/3/3 250/3/3 251/3/3
f 252/3/3 246/3/3 250/3/3
f 255/3/3 254/3/3 253/3/3
f 256/3/3 254/3/3 255/3/3
f 257/3/3 254/3/3 256/3/3
f 258/3/3 254/3/3 257/3/3
f 260/3/3 254/3/3 258/3/3
f 262/3/3 260/3/3 259/3/3
f 263/3/3 262/3/3 261/3/3
f 264/3/3 254/3/3 260/3/3
f 264/3/3 262/3/3 263/3/3
f 264/3/3 260/3/3 262/3/3
f 267/3/3 266/3/3 265/3/3
f 268/3/3 266/3/3 267/3/3
f 271/3/3 270/3/3 269/3/3
f 272/3/3 270/3/3 271/3/3
f 275/3/3 274/3/3 273/3/3
f 276/3/3 274/3/3 275/3/3
f 279/3/3 278/3/3 277/3/3
f 280/3/3 278/3/3 279/3/3
f 283/3/3 282/3/3 281/3/3
f 284/3/3 282/3/3 283/3/3
f 287/3/3 286/3/3 285/3/3
f 288/3/3 286/3/3 287/3/3
f 291/3/3 290/3/3 289/3/3
f 292/3/3 290/3/3 291/3/3
f 295/3/3 294/3/3 293/3/3
f 296/3/3 294/3/3 295/3/3
f 299/3/3 298/3/3 297/3/3
f 300/3/3 298/3/3 299/3/3
f 303/3/3 301/3/3 300/3/3
f 304/3/3 301/3/3 303/3/3
f 305/3/3 303/3/3 302/3/3
f 306/3/3 303/3/3 305/3/3
f 310/3/3 308/3/3 307/3/3
f 310/3/3 309/3/3 308/3/3
f 311/3/3 309/3/3 310/3/3
f 313/3/3 309/3/3 311/3/3
f 314/3/3 313/3/3 312/3/3
f 315/3/3 309/3/3 313/3/3
f 315/3/3 313/3/3 314/3/3
f 317/3/3 309/3/3 315/3/3
f 318/3/3 317/3/3 316/3/3
f 319/3/3 317/3/3 318/3/3
f 320/3/3 309/3/3 317/3/3
f 320/3/3 317/3/3 319/3/3
f 323/3/3 322/3/3 321/3/3
f 324/3/3 322/3/3 323/3/3
f 327/3/3 326/3/3 325/3/3
f 328/3/3 326/3/3 327/3/3
f 329/3/4 330/3/4 331/3/4
f 331/3/4 330/3/4 332/3/4
f 333/3/4 334/3/4 335/3/4
f 335/3/4 334/3/4 336/3/4
f 337/3/4 338/3/4 340/3/4
f 338/3/4 339/3/4 340/3/4
f 340/3/4 339/3/4 341/3/4
f 341/3/4 339/3/4 343/3/4
f 342/3/4 343/3/4 344/3/4
f 343/3/4 339/3/4 345/3/4
f 344/3/4 343/3/4 345/3/4
f 345/3/4 339/3/4 347/3/4
f 346/3/4 347/3/4 348/3/4
f 348/3/4 347/3/4 349/3/4
f 347/3/4 339/3/4 350/3/4
f 349/3/4 347/3/4 350/3/4
f 351/3/4 352/3/4 353/3/4
f 353/3/4 352/3/4 354/3/4
f 354/3/4 355/3/4 357/3/4
f 357/3/4 355/3/4 358/3/4
f 356/3/4 357/3/4 359/3/4
f 359/3/4 357/3/4 360/3/4
f 361/3/4 362/3/4 363/3/4
f 363/3/4 362/3/4 364/3/4
f 365/3/4 366/3/4 367/3/4
f 367/3/4 366/3/4 368/3/4
f 369/3/4 370/3/4 371/3/4
f 371/3/4 370/3/4 372/3/4
f 373/3/4 374/3/4 375/3/4
f 375/3/4 374/3/4 376/3/4
f 377/3/4 378/3/4 379/3/4
f 379/3/4 378/3/4 380/3/4
f 381/3/4 382/3/4 383/3/4
f 383/3/4 382/3/4 384/3/4
f 385/3/4 386/3/4 387/3/4
f 387/3/4 386/3/4 388/3/4
f 389/3/4 390/3/4 391/3/4
f 391/3/4 390/3/4 392/3/4
f 393/3/4 394/3/4 395/3/4
f 395/3/4 394/3/4 396/3/4
f 396/3/4 394/3/4 397/3/4
f 397/3/4 394/3/4 398/3/4
f 398/3/4 394/3/4 400/3/4
f 399/3/4 400/3/4 402/3/4
f 401/3/4 402/3/4 403/3/4
f 400/3/4 394/3/4 404/3/4
f 403/3/4 402/3/4 404/3/4
f 402/3/4 400/3/4 404/3/4
f 405/3/4 406/3/4 407/3/4
f 407/3/4 406/3/4 408/3/4
f 408/3/4 406/3/4 409/3/4
f 409/3/4 406/3/4 410/3/4
f 408/3/4 409/3/4 412/3/4
f 412/3/4 409/3/4 413/3/4
f 411/3/4 412/3/4 413/3/4
f 410/3/4 406/3/4 414/3/4
f 411/3/4 413/3/4 415/3/4
f 413/3/4 414/3/4 415/3/4
f 415/3/4 414/3/4 416/3/4
f 416/3/4 414/3/4 418/3/4
f 417/3/4 418/3/4 419/3/4
f 414/3/4 406/3/4 420/3/4
f 419/3/4 418/3/4 420/3/4
f 418/3/4 414/3/4 420/3/4
f 421/3/4 422/3/4 423/3/4
f 423/3/4 422/3/4 424/3/4
f 433/3/5 426/3/5 425/3/5
f 434/3/5 426/3/5 433/3/5
f 435/3/5 428/3/5 427/3/5
f 436/3/5 428/3/5 435/3/5
f 437/3/5 430/3/5 429/3/5
f 438/3/5 430/3/5 437/3/5
f 441/3/5 432/3/5 431/3/5
f 442/3/5 432/3/5 441/3/5
f 443/3/5 440/3/5 439/3/5
f 444/3/5 440/3/5 443/3/5
f 449/3/5 446/3/5 445/3/5
f 450/3/5 446/3/5 449/3/5
f 451/3/5 448/3/5 447/3/5
f 452/3/5 448/3/5 451/3/5
f 457/3/5 454/3/5 453/3/5
f 458/3/5 454/3/5 457/3/5
f 459/3/5 456/3/5 455/3/5
f 460/3/5 456/3/5 459/3/5
f 465/3/5 462/3/5 461/3/5
f 466/3/5 462/3/5 465/3/5
f 473/3/5 464/3/5 463/3/5
f 474/3/5 464/3/5 473/3/5
f 475/3/5 468/3/5 467/3/5
f 476/3/5 468/3/5 475/3/5
f 477/3/5 470/3/5 469/3/5
f 478/3/5 470/3/5 477/3/5
f 479/3/5 472/3/5 471/3/5
f 480/3/5 472/3/5 479/3/5
f 485/3/5 482/3/5 481/3/5
f 486/3/5 482/3/5 485/3/5
f 487/3/5 484/3/5 483/3/5
f 488/3/5 484/3/5 487/3/5
f 493/3/5 490/3/5 489/3/5
f 494/3/5 490/3/5 493/3/5
f 495/3/5 492/3/5 491/3/5
f 496/3/5 492/3/5 495/3/5
f 501/3/5 498/3/5 497/3/5
f 502/3/5 498/3/5 501/3/5
f 503/3/5 500/3/5 499/3/5
f 504/3/5 500/3/5 503/3/5
f 509/3/5 506/3/5 505/3/5
f 510/3/5 506/3/5 509/3/5
f 511/3/5 508/3/5 507/3/5
f 512/3/5 508/3/5 511/3/5
f 517/3/5 514/3/5 513/3/5
f 518/3/5 514/3/5 517/3/5
f 519/3/5 516/3/5 515/3/5
f 520/3/5 516/3/5 519/3/5
f 525/3/5 522/3/5 521/3/5
f 526/3/5 522/3/5 525/3/5
f 527/3/5 524/3/5 523/3/5
f 528/3/5 524/3/5 527/3/5
f 533/3/5 530/3/5 529/3/5
f 534/3/5 530/3/5 533/3/5
f 535/3/5 532/3/5 531/3/5
f 536/3/5 532/3/5 535/3/5
f 541/3/5 538/3/5 537/3/5
f 542/3/5 538/3/5 541/3/5
f 543/3/5 540/3/5 539/3/5
f 544/3/5 540/3/5 543/3/5
f 549/3/5 546/3/5 545/3/5
f 550/3/5 546/3/5 549/3/5
f 551/3/5 548/3/5 547/3/5
f 552/3/5 548/3/5 551/3/5
f 555/3/5 554/3/5 553/3/5
f 556/3/5 554/3/5 555/3/5
f 559/3/5 558/3/5 557/3/5
f 560/3/5 558/3/5 559/3/5
f 564/3/5 562/3/5 561/3/5
f 565/3/5 562/3/5 564/3/5
f 567/3/5 564/3/5 563/3/5
f 568/3/5 564/3/5 567/3/5
f 569/3/5 566/3/5 565/3/5
f 570/3/5 566/3/5 569/3/5
f 571/3/5 569/3/5 568/3/5
f 572/3/5 569/3/5 571/3/5
f 575/3/5 574/3/5 573/3/5
f 576/3/5 574/3/5 575/3/5
f 577/3/5 575/3/5 573/3/5
f 578/3/5 574/3/5 576/3/5
f 579/3/5 577/3/5 573/3/5
f 579/3/5 578/3/5 577/3/5
f 580/3/5 574/3/5 578/3/5
f 580/3/5 578/3/5 579/3/5
f 583/3/5 582/3/5 581/3/5
f 584/3/5 582/3/5 583/3/5
f 585/3/6 586/3/6 587/3/6
f 587/3/6 586/3/6 588/3/6
f 589/3/6 590/3/6 591/3/6
f 591/3/6 590/3/6 592/3/6
f 593/3/6 594/3/6 595/3/6
f 595/3/6 594/3/6 596/3/6
f 597/3/6 598/3/6 599/3/6
f 599/3/6 598/3/6 600/3/6
f 601/3/6 602/3/6 603/3/6
f 603/3/6 602/3/6 604/3/6
f 601/3/6 603/3/6 605/3/6
f 604/3/6 602/3/6 606/3/6
f 601/3/6 605/3/6 607/3/6
f 605/3/6 606/3/6 607/3/6
f 606/3/6 602/3/6 608/3/6
f 607/3/6 606/3/6 608/3/6
f 609/3/6 610/3/6 611/3/6
f 611/3/6 610/3/6 612/3/6
