# MagicaVoxel @ Ephtracy

# group
o 

# material
mtllib aave flag.vox.mtl
usemtl palette

# normals
vn 0 0 -1
vn 0 0 1
vn -1 0 0
vn 1 0 0
vn 0 -1 0
vn 0 1 0

# texcoords
vt 0.365234 0.5
vt 0.416016 0.5
vt 0.962891 0.5

# verts
v 1.5 0.6 0.1
v 1.6 0.6 0.1
v 1.6 1.6 0.1
v 2.5 1.6 0.1
v 1.8 1.7 0.1
v 1.9 1.7 0.1
v 2 1.7 0.1
v 2.1 1.7 0.1
v 2.2 1.7 0.1
v 2.3 1.7 0.1
v 1.9 1.8 0.1
v 2 1.8 0.1
v 2.1 1.8 0.1
v 2.2 1.8 0.1
v 1.9 1.9 0.1
v 2.2 1.9 0.1
v 1.9 2 0.1
v 2.2 2 0.1
v 1.9 2.1 0.1
v 2 2.1 0.1
v 2.1 2.1 0.1
v 2.2 2.1 0.1
v 1.8 2.2 0.1
v 1.9 2.2 0.1
v 2 2.2 0.1
v 2.1 2.2 0.1
v 2.2 2.2 0.1
v 2.3 2.2 0.1
v 1.9 2.3 0.1
v 2.2 2.3 0.1
v 1.6 2.4 0.1
v 2.5 2.4 0.1
v 1.5 2.5 0.1
v 1.6 2.5 0.1
v 1.5 0.6 0.2
v 1.6 0.6 0.2
v 1.6 1.6 0.2
v 2.5 1.6 0.2
v 1.8 1.7 0.2
v 1.9 1.7 0.2
v 2 1.7 0.2
v 2.1 1.7 0.2
v 2.2 1.7 0.2
v 2.3 1.7 0.2
v 1.9 1.8 0.2
v 2 1.8 0.2
v 2.1 1.8 0.2
v 2.2 1.8 0.2
v 1.9 1.9 0.2
v 2.2 1.9 0.2
v 1.9 2 0.2
v 2.2 2 0.2
v 1.9 2.1 0.2
v 2 2.1 0.2
v 2.1 2.1 0.2
v 2.2 2.1 0.2
v 1.8 2.2 0.2
v 1.9 2.2 0.2
v 2 2.2 0.2
v 2.1 2.2 0.2
v 2.2 2.2 0.2
v 2.3 2.2 0.2
v 1.9 2.3 0.2
v 2.2 2.3 0.2
v 1.6 2.4 0.2
v 2.5 2.4 0.2
v 1.5 2.5 0.2
v 1.6 2.5 0.2
v 1.5 0.6 0.1
v 1.5 2.5 0.1
v 1.5 0.6 0.2
v 1.5 2.5 0.2
v 1.6 0.6 0.1
v 1.6 1.6 0.1
v 1.6 2.4 0.1
v 1.6 2.5 0.1
v 1.6 0.6 0.2
v 1.6 1.6 0.2
v 1.6 2.4 0.2
v 1.6 2.5 0.2
v 2.5 1.6 0.1
v 2.5 2.4 0.1
v 2.5 1.6 0.2
v 2.5 2.4 0.2
v 1.5 0.6 0.1
v 1.5 0.6 0.2
v 1.6 0.6 0.1
v 1.6 0.6 0.2
v 1.6 1.6 0.1
v 1.6 1.6 0.2
v 2.5 1.6 0.1
v 2.5 1.6 0.2
v 1.6 2.4 0.1
v 1.6 2.4 0.2
v 2.5 2.4 0.1
v 2.5 2.4 0.2
v 1.5 2.5 0.1
v 1.5 2.5 0.2
v 1.6 2.5 0.1
v 1.6 2.5 0.2

# faces
f 3/1/1 2/1/1 1/1/1
f 5/2/1 4/2/1 3/2/1
f 6/2/1 4/2/1 5/2/1
f 7/2/1 4/2/1 6/2/1
f 8/2/1 4/2/1 7/2/1
f 9/2/1 4/2/1 8/2/1
f 10/2/1 4/2/1 9/2/1
f 11/3/1 6/3/1 5/3/1
f 11/2/1 7/2/1 6/2/1
f 12/3/1 8/3/1 7/3/1
f 12/2/1 7/2/1 11/2/1
f 13/2/1 9/2/1 8/2/1
f 13/3/1 8/3/1 12/3/1
f 14/3/1 10/3/1 9/3/1
f 14/2/1 9/2/1 13/2/1
f 15/3/1 13/3/1 12/3/1
f 15/3/1 11/3/1 5/3/1
f 15/3/1 14/3/1 13/3/1
f 15/3/1 12/3/1 11/3/1
f 16/3/1 10/3/1 14/3/1
f 16/3/1 14/3/1 15/3/1
f 17/3/1 15/3/1 5/3/1
f 17/2/1 16/2/1 15/2/1
f 18/3/1 10/3/1 16/3/1
f 18/2/1 16/2/1 17/2/1
f 19/3/1 17/3/1 5/3/1
f 19/3/1 18/3/1 17/3/1
f 20/3/1 18/3/1 19/3/1
f 21/3/1 18/3/1 20/3/1
f 22/3/1 10/3/1 18/3/1
f 22/3/1 18/3/1 21/3/1
f 23/2/1 5/2/1 3/2/1
f 23/3/1 19/3/1 5/3/1
f 24/2/1 20/2/1 19/2/1
f 24/3/1 19/3/1 23/3/1
f 25/3/1 21/3/1 20/3/1
f 25/2/1 20/2/1 24/2/1
f 26/2/1 22/2/1 21/2/1
f 26/3/1 21/3/1 25/3/1
f 27/3/1 10/3/1 22/3/1
f 27/2/1 22/2/1 26/2/1
f 28/2/1 4/2/1 10/2/1
f 28/3/1 10/3/1 27/3/1
f 29/3/1 26/3/1 25/3/1
f 29/3/1 27/3/1 26/3/1
f 29/2/1 24/2/1 23/2/1
f 29/3/1 25/3/1 24/3/1
f 30/2/1 28/2/1 27/2/1
f 30/3/1 27/3/1 29/3/1
f 31/1/1 3/1/1 1/1/1
f 31/2/1 29/2/1 23/2/1
f 31/2/1 30/2/1 29/2/1
f 31/2/1 23/2/1 3/2/1
f 32/2/1 28/2/1 30/2/1
f 32/2/1 30/2/1 31/2/1
f 32/2/1 4/2/1 28/2/1
f 33/1/1 31/1/1 1/1/1
f 34/1/1 31/1/1 33/1/1
f 35/1/2 36/1/2 37/1/2
f 37/2/2 38/2/2 39/2/2
f 39/2/2 38/2/2 40/2/2
f 40/2/2 38/2/2 41/2/2
f 41/2/2 38/2/2 42/2/2
f 42/2/2 38/2/2 43/2/2
f 43/2/2 38/2/2 44/2/2
f 39/3/2 40/3/2 45/3/2
f 40/2/2 41/2/2 45/2/2
f 41/3/2 42/3/2 46/3/2
f 45/2/2 41/2/2 46/2/2
f 42/2/2 43/2/2 47/2/2
f 46/3/2 42/3/2 47/3/2
f 43/3/2 44/3/2 48/3/2
f 47/2/2 43/2/2 48/2/2
f 46/3/2 47/3/2 49/3/2
f 39/3/2 45/3/2 49/3/2
f 47/3/2 48/3/2 49/3/2
f 45/3/2 46/3/2 49/3/2
f 48/3/2 44/3/2 50/3/2
f 49/3/2 48/3/2 50/3/2
f 39/3/2 49/3/2 51/3/2
f 49/2/2 50/2/2 51/2/2
f 50/3/2 44/3/2 52/3/2
f 51/2/2 50/2/2 52/2/2
f 39/3/2 51/3/2 53/3/2
f 51/3/2 52/3/2 53/3/2
f 53/3/2 52/3/2 54/3/2
f 54/3/2 52/3/2 55/3/2
f 52/3/2 44/3/2 56/3/2
f 55/3/2 52/3/2 56/3/2
f 37/2/2 39/2/2 57/2/2
f 39/3/2 53/3/2 57/3/2
f 53/2/2 54/2/2 58/2/2
f 57/3/2 53/3/2 58/3/2
f 54/3/2 55/3/2 59/3/2
f 58/2/2 54/2/2 59/2/2
f 55/2/2 56/2/2 60/2/2
f 59/3/2 55/3/2 60/3/2
f 56/3/2 44/3/2 61/3/2
f 60/2/2 56/2/2 61/2/2
f 44/2/2 38/2/2 62/2/2
f 61/3/2 44/3/2 62/3/2
f 59/3/2 60/3/2 63/3/2
f 60/3/2 61/3/2 63/3/2
f 57/2/2 58/2/2 63/2/2
f 58/3/2 59/3/2 63/3/2
f 61/2/2 62/2/2 64/2/2
f 63/3/2 61/3/2 64/3/2
f 35/1/2 37/1/2 65/1/2
f 57/2/2 63/2/2 65/2/2
f 63/2/2 64/2/2 65/2/2
f 37/2/2 57/2/2 65/2/2
f 64/2/2 62/2/2 66/2/2
f 65/2/2 64/2/2 66/2/2
f 62/2/2 38/2/2 66/2/2
f 35/1/2 65/1/2 67/1/2
f 67/1/2 65/1/2 68/1/2
f 71/1/3 70/1/3 69/1/3
f 72/1/3 70/1/3 71/1/3
f 73/1/4 74/1/4 77/1/4
f 77/1/4 74/1/4 78/1/4
f 75/1/4 76/1/4 79/1/4
f 79/1/4 76/1/4 80/1/4
f 81/2/4 82/2/4 83/2/4
f 83/2/4 82/2/4 84/2/4
f 87/1/5 86/1/5 85/1/5
f 88/1/5 86/1/5 87/1/5
f 91/2/5 90/2/5 89/2/5
f 92/2/5 90/2/5 91/2/5
f 93/2/6 94/2/6 95/2/6
f 95/2/6 94/2/6 96/2/6
f 97/1/6 98/1/6 99/1/6
f 99/1/6 98/1/6 100/1/6
